<mxfile host="app.diagrams.net" modified="2023-03-26T15:46:50.484Z" agent="Mozilla/5.0 (Windows NT 10.0; Win64; x64) AppleWebKit/537.36 (KHTML, like Gecko) Chrome/111.0.0.0 Safari/537.36" etag="edWdogl7MQNWU_ivRemt" version="21.1.1" type="device">
  <diagram id="R2lEEEUBdFMjLlhIrx00" name="Page-1">
    <mxGraphModel dx="1776" dy="509" grid="1" gridSize="10" guides="1" tooltips="1" connect="1" arrows="1" fold="1" page="1" pageScale="1" pageWidth="850" pageHeight="1100" math="0" shadow="0" extFonts="Permanent Marker^https://fonts.googleapis.com/css?family=Permanent+Marker">
      <root>
        <mxCell id="0" />
        <mxCell id="1" parent="0" />
        <mxCell id="sKtYysRFGBOfoYJOaOwo-1" value="пользователь" style="rounded=0;whiteSpace=wrap;html=1;" vertex="1" parent="1">
          <mxGeometry x="100" y="130" width="110" height="40" as="geometry" />
        </mxCell>
        <mxCell id="sKtYysRFGBOfoYJOaOwo-2" value="пиццерия" style="rounded=0;whiteSpace=wrap;html=1;" vertex="1" parent="1">
          <mxGeometry x="100" y="530" width="110" height="40" as="geometry" />
        </mxCell>
        <mxCell id="sKtYysRFGBOfoYJOaOwo-3" value="меню" style="rounded=0;whiteSpace=wrap;html=1;" vertex="1" parent="1">
          <mxGeometry x="410" y="130" width="110" height="40" as="geometry" />
        </mxCell>
        <mxCell id="sKtYysRFGBOfoYJOaOwo-4" value="заказ" style="rounded=0;whiteSpace=wrap;html=1;" vertex="1" parent="1">
          <mxGeometry x="100" y="330" width="110" height="40" as="geometry" />
        </mxCell>
        <mxCell id="sKtYysRFGBOfoYJOaOwo-5" value="корзина" style="rounded=0;whiteSpace=wrap;html=1;" vertex="1" parent="1">
          <mxGeometry x="-210" y="130" width="110" height="40" as="geometry" />
        </mxCell>
        <mxCell id="sKtYysRFGBOfoYJOaOwo-6" value="курьер" style="rounded=0;whiteSpace=wrap;html=1;" vertex="1" parent="1">
          <mxGeometry x="-260" y="710" width="110" height="40" as="geometry" />
        </mxCell>
        <mxCell id="sKtYysRFGBOfoYJOaOwo-9" value="смотрит" style="rhombus;whiteSpace=wrap;html=1;" vertex="1" parent="1">
          <mxGeometry x="280" y="125" width="60" height="50" as="geometry" />
        </mxCell>
        <mxCell id="sKtYysRFGBOfoYJOaOwo-11" value="пицца" style="ellipse;whiteSpace=wrap;html=1;" vertex="1" parent="1">
          <mxGeometry x="420" y="40" width="90" height="40" as="geometry" />
        </mxCell>
        <mxCell id="sKtYysRFGBOfoYJOaOwo-12" value="" style="endArrow=none;html=1;rounded=0;entryX=0.5;entryY=1;entryDx=0;entryDy=0;exitX=0.5;exitY=0;exitDx=0;exitDy=0;" edge="1" parent="1" source="sKtYysRFGBOfoYJOaOwo-3" target="sKtYysRFGBOfoYJOaOwo-11">
          <mxGeometry width="50" height="50" relative="1" as="geometry">
            <mxPoint x="360" y="250" as="sourcePoint" />
            <mxPoint x="410" y="200" as="targetPoint" />
          </mxGeometry>
        </mxCell>
        <mxCell id="sKtYysRFGBOfoYJOaOwo-13" value="цена" style="ellipse;whiteSpace=wrap;html=1;" vertex="1" parent="1">
          <mxGeometry x="520" y="40" width="90" height="40" as="geometry" />
        </mxCell>
        <mxCell id="sKtYysRFGBOfoYJOaOwo-14" value="" style="endArrow=none;html=1;rounded=0;entryX=0.5;entryY=1;entryDx=0;entryDy=0;exitX=0.75;exitY=0;exitDx=0;exitDy=0;" edge="1" parent="1" target="sKtYysRFGBOfoYJOaOwo-13" source="sKtYysRFGBOfoYJOaOwo-3">
          <mxGeometry width="50" height="50" relative="1" as="geometry">
            <mxPoint x="605" y="130" as="sourcePoint" />
            <mxPoint x="550" y="200" as="targetPoint" />
          </mxGeometry>
        </mxCell>
        <mxCell id="sKtYysRFGBOfoYJOaOwo-15" value="описание" style="ellipse;whiteSpace=wrap;html=1;" vertex="1" parent="1">
          <mxGeometry x="630" y="40" width="90" height="40" as="geometry" />
        </mxCell>
        <mxCell id="sKtYysRFGBOfoYJOaOwo-16" value="" style="endArrow=none;html=1;rounded=0;entryX=0.5;entryY=1;entryDx=0;entryDy=0;exitX=1;exitY=0;exitDx=0;exitDy=0;" edge="1" parent="1" source="sKtYysRFGBOfoYJOaOwo-3" target="sKtYysRFGBOfoYJOaOwo-15">
          <mxGeometry width="50" height="50" relative="1" as="geometry">
            <mxPoint x="550" y="120" as="sourcePoint" />
            <mxPoint x="575" y="90" as="targetPoint" />
          </mxGeometry>
        </mxCell>
        <mxCell id="sKtYysRFGBOfoYJOaOwo-18" value="" style="endArrow=none;html=1;rounded=0;entryX=1;entryY=0.5;entryDx=0;entryDy=0;exitX=0;exitY=0.5;exitDx=0;exitDy=0;" edge="1" parent="1" source="sKtYysRFGBOfoYJOaOwo-9" target="sKtYysRFGBOfoYJOaOwo-1">
          <mxGeometry width="50" height="50" relative="1" as="geometry">
            <mxPoint x="475" y="140" as="sourcePoint" />
            <mxPoint x="475" y="90" as="targetPoint" />
          </mxGeometry>
        </mxCell>
        <mxCell id="sKtYysRFGBOfoYJOaOwo-19" value="" style="endArrow=none;html=1;rounded=0;exitX=0;exitY=0.5;exitDx=0;exitDy=0;" edge="1" parent="1" source="sKtYysRFGBOfoYJOaOwo-3" target="sKtYysRFGBOfoYJOaOwo-9">
          <mxGeometry width="50" height="50" relative="1" as="geometry">
            <mxPoint x="360" y="200" as="sourcePoint" />
            <mxPoint x="290" y="200" as="targetPoint" />
          </mxGeometry>
        </mxCell>
        <mxCell id="sKtYysRFGBOfoYJOaOwo-20" value="добавить пиццу" style="rhombus;whiteSpace=wrap;html=1;" vertex="1" parent="1">
          <mxGeometry x="-40" y="115" width="70" height="70" as="geometry" />
        </mxCell>
        <mxCell id="sKtYysRFGBOfoYJOaOwo-21" value="" style="endArrow=none;html=1;rounded=0;entryX=0;entryY=0.5;entryDx=0;entryDy=0;exitX=1;exitY=0.5;exitDx=0;exitDy=0;" edge="1" parent="1" source="sKtYysRFGBOfoYJOaOwo-20" target="sKtYysRFGBOfoYJOaOwo-1">
          <mxGeometry width="50" height="50" relative="1" as="geometry">
            <mxPoint x="280" y="190" as="sourcePoint" />
            <mxPoint x="210" y="190" as="targetPoint" />
          </mxGeometry>
        </mxCell>
        <mxCell id="sKtYysRFGBOfoYJOaOwo-22" value="" style="endArrow=none;html=1;rounded=0;entryX=0;entryY=0.5;entryDx=0;entryDy=0;exitX=1;exitY=0.5;exitDx=0;exitDy=0;" edge="1" parent="1" source="sKtYysRFGBOfoYJOaOwo-5" target="sKtYysRFGBOfoYJOaOwo-20">
          <mxGeometry width="50" height="50" relative="1" as="geometry">
            <mxPoint x="230" y="300" as="sourcePoint" />
            <mxPoint x="230" y="260" as="targetPoint" />
          </mxGeometry>
        </mxCell>
        <mxCell id="sKtYysRFGBOfoYJOaOwo-24" value="оформить заказ" style="rhombus;whiteSpace=wrap;html=1;" vertex="1" parent="1">
          <mxGeometry x="120" y="210" width="70" height="70" as="geometry" />
        </mxCell>
        <mxCell id="sKtYysRFGBOfoYJOaOwo-25" value="" style="endArrow=none;html=1;rounded=0;entryX=0.5;entryY=1;entryDx=0;entryDy=0;exitX=0.5;exitY=0;exitDx=0;exitDy=0;" edge="1" parent="1" source="sKtYysRFGBOfoYJOaOwo-24" target="sKtYysRFGBOfoYJOaOwo-1">
          <mxGeometry width="50" height="50" relative="1" as="geometry">
            <mxPoint x="40" y="200" as="sourcePoint" />
            <mxPoint x="110" y="200" as="targetPoint" />
          </mxGeometry>
        </mxCell>
        <mxCell id="sKtYysRFGBOfoYJOaOwo-26" value="" style="endArrow=none;html=1;rounded=0;entryX=0.5;entryY=1;entryDx=0;entryDy=0;exitX=0.5;exitY=0;exitDx=0;exitDy=0;" edge="1" parent="1" source="sKtYysRFGBOfoYJOaOwo-4" target="sKtYysRFGBOfoYJOaOwo-24">
          <mxGeometry width="50" height="50" relative="1" as="geometry">
            <mxPoint x="240" y="290" as="sourcePoint" />
            <mxPoint x="240" y="250" as="targetPoint" />
          </mxGeometry>
        </mxCell>
        <mxCell id="sKtYysRFGBOfoYJOaOwo-27" value="повар" style="rounded=0;whiteSpace=wrap;html=1;" vertex="1" parent="1">
          <mxGeometry x="-260" y="530" width="110" height="40" as="geometry" />
        </mxCell>
        <mxCell id="sKtYysRFGBOfoYJOaOwo-28" value="информация" style="ellipse;whiteSpace=wrap;html=1;" vertex="1" parent="1">
          <mxGeometry y="407.5" width="90" height="40" as="geometry" />
        </mxCell>
        <mxCell id="sKtYysRFGBOfoYJOaOwo-29" value="" style="endArrow=none;html=1;rounded=0;entryX=0.5;entryY=0;entryDx=0;entryDy=0;exitX=0;exitY=0.5;exitDx=0;exitDy=0;" edge="1" parent="1" target="sKtYysRFGBOfoYJOaOwo-28" source="sKtYysRFGBOfoYJOaOwo-4">
          <mxGeometry width="50" height="50" relative="1" as="geometry">
            <mxPoint x="25" y="340" as="sourcePoint" />
            <mxPoint x="-30" y="410" as="targetPoint" />
          </mxGeometry>
        </mxCell>
        <mxCell id="sKtYysRFGBOfoYJOaOwo-30" value="использовать&amp;nbsp;&lt;br&gt;информацию" style="rhombus;whiteSpace=wrap;html=1;" vertex="1" parent="1">
          <mxGeometry x="-150" y="380" width="110" height="95" as="geometry" />
        </mxCell>
        <mxCell id="sKtYysRFGBOfoYJOaOwo-31" value="" style="endArrow=none;html=1;rounded=0;entryX=0;entryY=0.5;entryDx=0;entryDy=0;exitX=1;exitY=0.5;exitDx=0;exitDy=0;" edge="1" parent="1" source="sKtYysRFGBOfoYJOaOwo-30" target="sKtYysRFGBOfoYJOaOwo-28">
          <mxGeometry width="50" height="50" relative="1" as="geometry">
            <mxPoint x="110" y="340" as="sourcePoint" />
            <mxPoint x="75" y="310" as="targetPoint" />
          </mxGeometry>
        </mxCell>
        <mxCell id="sKtYysRFGBOfoYJOaOwo-32" value="" style="endArrow=none;html=1;rounded=0;entryX=0;entryY=0.5;entryDx=0;entryDy=0;exitX=1;exitY=0.5;exitDx=0;exitDy=0;" edge="1" parent="1" source="sKtYysRFGBOfoYJOaOwo-27" target="sKtYysRFGBOfoYJOaOwo-30">
          <mxGeometry width="50" height="50" relative="1" as="geometry">
            <mxPoint x="-180" y="290" as="sourcePoint" />
            <mxPoint x="-140" y="290" as="targetPoint" />
          </mxGeometry>
        </mxCell>
        <mxCell id="sKtYysRFGBOfoYJOaOwo-33" value="получить&amp;nbsp;&lt;br&gt;заказ" style="rhombus;whiteSpace=wrap;html=1;" vertex="1" parent="1">
          <mxGeometry x="110" y="420" width="90" height="70" as="geometry" />
        </mxCell>
        <mxCell id="sKtYysRFGBOfoYJOaOwo-34" value="" style="endArrow=none;html=1;rounded=0;entryX=0.5;entryY=1;entryDx=0;entryDy=0;exitX=0.5;exitY=0;exitDx=0;exitDy=0;" edge="1" parent="1" source="sKtYysRFGBOfoYJOaOwo-33" target="sKtYysRFGBOfoYJOaOwo-4">
          <mxGeometry width="50" height="50" relative="1" as="geometry">
            <mxPoint x="220" y="450" as="sourcePoint" />
            <mxPoint x="220" y="400" as="targetPoint" />
          </mxGeometry>
        </mxCell>
        <mxCell id="sKtYysRFGBOfoYJOaOwo-35" value="" style="endArrow=none;html=1;rounded=0;entryX=0.5;entryY=1;entryDx=0;entryDy=0;exitX=0.5;exitY=0;exitDx=0;exitDy=0;" edge="1" parent="1" source="sKtYysRFGBOfoYJOaOwo-2" target="sKtYysRFGBOfoYJOaOwo-33">
          <mxGeometry width="50" height="50" relative="1" as="geometry">
            <mxPoint x="240" y="510" as="sourcePoint" />
            <mxPoint x="240" y="460" as="targetPoint" />
          </mxGeometry>
        </mxCell>
        <mxCell id="sKtYysRFGBOfoYJOaOwo-36" value="получить&amp;nbsp;&lt;br&gt;заказ" style="rhombus;whiteSpace=wrap;html=1;" vertex="1" parent="1">
          <mxGeometry x="-60" y="515" width="90" height="70" as="geometry" />
        </mxCell>
        <mxCell id="sKtYysRFGBOfoYJOaOwo-37" value="" style="endArrow=none;html=1;rounded=0;entryX=0;entryY=0.5;entryDx=0;entryDy=0;exitX=1;exitY=0.5;exitDx=0;exitDy=0;" edge="1" parent="1" source="sKtYysRFGBOfoYJOaOwo-27" target="sKtYysRFGBOfoYJOaOwo-36">
          <mxGeometry width="50" height="50" relative="1" as="geometry">
            <mxPoint x="-140" y="560" as="sourcePoint" />
            <mxPoint x="-150" y="438" as="targetPoint" />
          </mxGeometry>
        </mxCell>
        <mxCell id="sKtYysRFGBOfoYJOaOwo-38" value="" style="endArrow=none;html=1;rounded=0;entryX=1;entryY=0.5;entryDx=0;entryDy=0;exitX=0;exitY=0.5;exitDx=0;exitDy=0;" edge="1" parent="1" source="sKtYysRFGBOfoYJOaOwo-2" target="sKtYysRFGBOfoYJOaOwo-36">
          <mxGeometry width="50" height="50" relative="1" as="geometry">
            <mxPoint x="165" y="540" as="sourcePoint" />
            <mxPoint x="165" y="500" as="targetPoint" />
          </mxGeometry>
        </mxCell>
        <mxCell id="sKtYysRFGBOfoYJOaOwo-39" value="комментарий" style="ellipse;whiteSpace=wrap;html=1;" vertex="1" parent="1">
          <mxGeometry x="-30" y="320" width="90" height="40" as="geometry" />
        </mxCell>
        <mxCell id="sKtYysRFGBOfoYJOaOwo-40" value="" style="endArrow=none;html=1;rounded=0;entryX=1;entryY=0.5;entryDx=0;entryDy=0;exitX=0;exitY=0.5;exitDx=0;exitDy=0;" edge="1" parent="1" source="sKtYysRFGBOfoYJOaOwo-4" target="sKtYysRFGBOfoYJOaOwo-39">
          <mxGeometry width="50" height="50" relative="1" as="geometry">
            <mxPoint x="110" y="360" as="sourcePoint" />
            <mxPoint x="55" y="418" as="targetPoint" />
          </mxGeometry>
        </mxCell>
        <mxCell id="sKtYysRFGBOfoYJOaOwo-41" value="получить&amp;nbsp;&lt;br&gt;заказ" style="rhombus;whiteSpace=wrap;html=1;" vertex="1" parent="1">
          <mxGeometry x="-250" y="600" width="90" height="70" as="geometry" />
        </mxCell>
        <mxCell id="sKtYysRFGBOfoYJOaOwo-42" value="" style="endArrow=none;html=1;rounded=0;exitX=0.5;exitY=0;exitDx=0;exitDy=0;" edge="1" parent="1" source="sKtYysRFGBOfoYJOaOwo-41">
          <mxGeometry width="50" height="50" relative="1" as="geometry">
            <mxPoint x="-140" y="560" as="sourcePoint" />
            <mxPoint x="-205" y="570" as="targetPoint" />
          </mxGeometry>
        </mxCell>
        <mxCell id="sKtYysRFGBOfoYJOaOwo-43" value="" style="endArrow=none;html=1;rounded=0;exitX=0.5;exitY=0;exitDx=0;exitDy=0;entryX=0.5;entryY=1;entryDx=0;entryDy=0;" edge="1" parent="1" source="sKtYysRFGBOfoYJOaOwo-6" target="sKtYysRFGBOfoYJOaOwo-41">
          <mxGeometry width="50" height="50" relative="1" as="geometry">
            <mxPoint x="-195" y="610" as="sourcePoint" />
            <mxPoint x="-195" y="580" as="targetPoint" />
          </mxGeometry>
        </mxCell>
        <mxCell id="sKtYysRFGBOfoYJOaOwo-44" value="пользователь" style="rounded=0;whiteSpace=wrap;html=1;" vertex="1" parent="1">
          <mxGeometry x="-260" y="880" width="110" height="40" as="geometry" />
        </mxCell>
        <mxCell id="sKtYysRFGBOfoYJOaOwo-45" value="отдать заказ" style="rhombus;whiteSpace=wrap;html=1;" vertex="1" parent="1">
          <mxGeometry x="-250" y="780" width="90" height="70" as="geometry" />
        </mxCell>
        <mxCell id="sKtYysRFGBOfoYJOaOwo-46" value="" style="endArrow=none;html=1;rounded=0;exitX=0.5;exitY=0;exitDx=0;exitDy=0;entryX=0.5;entryY=1;entryDx=0;entryDy=0;" edge="1" parent="1" source="sKtYysRFGBOfoYJOaOwo-45" target="sKtYysRFGBOfoYJOaOwo-6">
          <mxGeometry width="50" height="50" relative="1" as="geometry">
            <mxPoint x="-195" y="720" as="sourcePoint" />
            <mxPoint x="-195" y="680" as="targetPoint" />
          </mxGeometry>
        </mxCell>
        <mxCell id="sKtYysRFGBOfoYJOaOwo-47" value="" style="endArrow=none;html=1;rounded=0;exitX=0.5;exitY=0;exitDx=0;exitDy=0;entryX=0.5;entryY=1;entryDx=0;entryDy=0;" edge="1" parent="1" source="sKtYysRFGBOfoYJOaOwo-44" target="sKtYysRFGBOfoYJOaOwo-45">
          <mxGeometry width="50" height="50" relative="1" as="geometry">
            <mxPoint x="-195" y="790" as="sourcePoint" />
            <mxPoint x="-195" y="760" as="targetPoint" />
          </mxGeometry>
        </mxCell>
        <mxCell id="sKtYysRFGBOfoYJOaOwo-48" value="ФИО" style="ellipse;whiteSpace=wrap;html=1;" vertex="1" parent="1">
          <mxGeometry x="50" y="30" width="90" height="40" as="geometry" />
        </mxCell>
        <mxCell id="sKtYysRFGBOfoYJOaOwo-49" value="email" style="ellipse;whiteSpace=wrap;html=1;" vertex="1" parent="1">
          <mxGeometry x="160" y="30" width="90" height="40" as="geometry" />
        </mxCell>
        <mxCell id="sKtYysRFGBOfoYJOaOwo-50" value="" style="endArrow=none;html=1;rounded=0;entryX=0.5;entryY=0;entryDx=0;entryDy=0;exitX=0.5;exitY=1;exitDx=0;exitDy=0;" edge="1" parent="1" source="sKtYysRFGBOfoYJOaOwo-48" target="sKtYysRFGBOfoYJOaOwo-1">
          <mxGeometry width="50" height="50" relative="1" as="geometry">
            <mxPoint x="40" y="160" as="sourcePoint" />
            <mxPoint x="110" y="160" as="targetPoint" />
          </mxGeometry>
        </mxCell>
        <mxCell id="sKtYysRFGBOfoYJOaOwo-51" value="" style="endArrow=none;html=1;rounded=0;entryX=0.5;entryY=0;entryDx=0;entryDy=0;exitX=0.5;exitY=1;exitDx=0;exitDy=0;" edge="1" parent="1" source="sKtYysRFGBOfoYJOaOwo-49" target="sKtYysRFGBOfoYJOaOwo-1">
          <mxGeometry width="50" height="50" relative="1" as="geometry">
            <mxPoint x="105" y="80" as="sourcePoint" />
            <mxPoint x="165" y="140" as="targetPoint" />
          </mxGeometry>
        </mxCell>
        <mxCell id="sKtYysRFGBOfoYJOaOwo-52" value="список пицц" style="ellipse;whiteSpace=wrap;html=1;" vertex="1" parent="1">
          <mxGeometry x="-270" y="40" width="90" height="40" as="geometry" />
        </mxCell>
        <mxCell id="sKtYysRFGBOfoYJOaOwo-53" value="общая стоимость" style="ellipse;whiteSpace=wrap;html=1;" vertex="1" parent="1">
          <mxGeometry x="-160" y="40" width="90" height="40" as="geometry" />
        </mxCell>
        <mxCell id="sKtYysRFGBOfoYJOaOwo-54" value="" style="endArrow=none;html=1;rounded=0;entryX=0.5;entryY=0;entryDx=0;entryDy=0;exitX=0.5;exitY=1;exitDx=0;exitDy=0;" edge="1" parent="1" source="sKtYysRFGBOfoYJOaOwo-53" target="sKtYysRFGBOfoYJOaOwo-5">
          <mxGeometry width="50" height="50" relative="1" as="geometry">
            <mxPoint x="105" y="80" as="sourcePoint" />
            <mxPoint x="165" y="140" as="targetPoint" />
          </mxGeometry>
        </mxCell>
        <mxCell id="sKtYysRFGBOfoYJOaOwo-55" value="" style="endArrow=none;html=1;rounded=0;exitX=0.5;exitY=1;exitDx=0;exitDy=0;entryX=0.5;entryY=0;entryDx=0;entryDy=0;" edge="1" parent="1" source="sKtYysRFGBOfoYJOaOwo-52" target="sKtYysRFGBOfoYJOaOwo-5">
          <mxGeometry width="50" height="50" relative="1" as="geometry">
            <mxPoint x="-105" y="90" as="sourcePoint" />
            <mxPoint x="-170" y="110" as="targetPoint" />
          </mxGeometry>
        </mxCell>
      </root>
    </mxGraphModel>
  </diagram>
</mxfile>
